<!DOCTYPE svg PUBLIC "-//W3C//DTD SVG 1.1//EN" "http://www.w3.org/Graphics/SVG/1.1/DTD/svg11.dtd">
<!-- Uploaded to: SVG Repo, www.svgrepo.com, Transformed by: SVG Repo Mixer Tools -->
<svg fill="#f1efef" version="1.1" id="Capa_1" xmlns="http://www.w3.org/2000/svg" xmlns:xlink="http://www.w3.org/1999/xlink" width="800px" height="800px" viewBox="0 0 179.555 179.555" xml:space="preserve">
<g id="SVGRepo_bgCarrier" stroke-width="0"/>
<g id="SVGRepo_tracerCarrier" stroke-linecap="round" stroke-linejoin="round"/>
<g id="SVGRepo_iconCarrier"> <g> <path d="M99.752,91.37c0-5.495-4.472-9.956-9.962-9.956c-5.492,0-9.956,4.461-9.956,9.956c0,5.484,4.464,9.956,9.956,9.956 C95.281,101.326,99.752,96.854,99.752,91.37z M89.786,93.227c-1.021,0-1.856-0.833-1.856-1.856s0.83-1.856,1.856-1.856 c1.025,0,1.858,0.833,1.858,1.856S90.806,93.227,89.786,93.227z M169.604,49.225c-5.495,0-9.956,4.459-9.956,9.956 c0,2.134,0.686,4.093,1.824,5.72l-40.257,31.269L93.899,34.47c3.438-1.582,5.832-5.021,5.832-9.039 c0-5.497-4.461-9.956-9.951-9.956c-5.492,0-9.958,4.459-9.958,9.956c0,4.019,2.405,7.457,5.837,9.039L58.443,95.947L18.09,64.9 c1.139-1.627,1.825-3.586,1.825-5.72c0-5.497-4.466-9.956-9.959-9.956C4.466,49.225,0,53.684,0,59.181 c0,5.487,4.466,9.957,9.956,9.957c0.216,0,0.422-0.053,0.633-0.063l28.648,73.997c0.604,1.561,2.104,2.584,3.773,2.584h93.535 c1.682,0,3.174-1.013,3.771-2.584l28.65-73.997c0.211,0.01,0.416,0.063,0.627,0.063c5.501,0,9.962-4.469,9.962-9.957 C179.566,53.684,175.094,49.225,169.604,49.225z M89.786,23.575c1.021,0,1.858,0.831,1.858,1.856c0,1.026-0.833,1.856-1.858,1.856 c-1.026,0-1.856-0.83-1.856-1.856C87.929,24.405,88.765,23.575,89.786,23.575z M89.786,45.162l24.849,56.133L90.13,120.321 l-25.077-19.29L89.786,45.162z M8.11,59.181c0-1.02,0.831-1.856,1.859-1.856c1.026,0,1.856,0.831,1.856,1.856 c0,1.026-0.831,1.856-1.856,1.856C8.941,61.037,8.11,60.201,8.11,59.181z M55.076,103.573l-11.974,27.042L23.116,78.982 L55.076,103.573z M48.885,137.555l12.798-28.898l21.837,16.802l-15.572,12.097H48.885L48.885,137.555z M81.15,137.555l9.002-6.992 l9.1,6.992H81.15z M111.491,136.753l-14.724-11.327l21.242-16.506l12.683,28.635h-18.404 C112.066,137.26,111.802,136.996,111.491,136.753z M136.466,130.615l-11.865-26.811l31.804-24.714L136.466,130.615z M169.604,61.037c-1.013,0-1.856-0.83-1.856-1.856c0-1.025,0.823-1.856,1.856-1.856c1.034,0,1.861,0.831,1.861,1.856 C171.465,60.207,170.638,61.037,169.604,61.037z M140.184,160.03c0,2.236-1.814,4.05-4.051,4.05H43.432 c-2.236,0-4.05-1.813-4.05-4.05s1.814-4.05,4.05-4.05h92.701C138.38,155.98,140.184,157.794,140.184,160.03z"/> </g> </g>
</svg>