<!DOCTYPE svg PUBLIC "-//W3C//DTD SVG 1.1//EN" "http://www.w3.org/Graphics/SVG/1.1/DTD/svg11.dtd">
<!-- Uploaded to: SVG Repo, www.svgrepo.com, Transformed by: SVG Repo Mixer Tools -->
<svg fill="#ffffff" height="800px" width="800px" version="1.1" id="Capa_1" xmlns="http://www.w3.org/2000/svg" xmlns:xlink="http://www.w3.org/1999/xlink" viewBox="0 0 193.5 193.5" xml:space="preserve">
<g id="SVGRepo_bgCarrier" stroke-width="0"/>
<g id="SVGRepo_tracerCarrier" stroke-linecap="round" stroke-linejoin="round"/>
<g id="SVGRepo_iconCarrier"> <path d="M191.5,180H2c-1.104,0-2-0.896-2-2V24.167c0-1.104,0.896-2,2-2s2,0.896,2,2V31.5h17.871v-14h-3.418c-1.104,0-2-0.896-2-2 s0.896-2,2-2H53.12c1.104,0,2,0.896,2,2s-0.896,2-2,2h-3.418v14h59.271v-14h-3.418c-1.104,0-2-0.896-2-2s0.896-2,2-2h34.667 c1.104,0,2,0.896,2,2s-0.896,2-2,2h-3.419v14H189.5v-7.333c0-1.104,0.896-2,2-2s2,0.896,2,2V178 C193.5,179.104,192.604,180,191.5,180z M4,176h185.5v-16.5H4V176z M4,155.5h185.5v-120h-52.698v43.055 c0,3.687,1.29,7.284,3.632,10.131l33.747,41.034c3.104,3.774,3.736,8.864,1.648,13.283c-2.087,4.418-6.419,7.163-11.306,7.163 H81.251c-4.887,0-9.219-2.745-11.307-7.164c-2.087-4.418-1.455-9.508,1.649-13.282l13.392-16.283 c0.006-0.007,0.012-0.015,0.019-0.021l20.337-24.729c2.342-2.847,3.631-6.444,3.631-10.131V35.5H49.701v100.752 c0,7.673-6.242,13.915-13.915,13.915s-13.916-6.242-13.916-13.915V35.5H4V155.5z M25.871,65.5v70.752 c0,5.467,4.448,9.915,9.916,9.915s9.915-4.448,9.915-9.915V65.5H25.871z M87.484,116.695l-12.801,15.565 c-2.144,2.605-2.563,5.982-1.122,9.033s4.315,4.872,7.689,4.872h83.272c3.374,0,6.248-1.821,7.689-4.872 c1.44-3.051,1.021-6.428-1.122-9.033l0,0l-12.801-15.565H87.484z M90.774,112.695H155l-17.656-21.469 c-2.929-3.561-4.542-8.061-4.542-12.672V35.5h-19.83v43.055c0,4.61-1.612,9.111-4.541,12.672L90.774,112.695z M25.871,61.5h19.831 v-26H25.871V61.5z M112.972,31.5h19.83v-14h-19.83V31.5z M25.871,31.5h19.831v-14H25.871V31.5z"/> </g>
</svg>