<!DOCTYPE svg PUBLIC "-//W3C//DTD SVG 1.1//EN" "http://www.w3.org/Graphics/SVG/1.1/DTD/svg11.dtd">
<!-- Uploaded to: SVG Repo, www.svgrepo.com, Transformed by: SVG Repo Mixer Tools -->
<svg fill="#ffffff" width="800px" height="800px" viewBox="0 0 24 24" id="dna-4" data-name="Line Color" xmlns="http://www.w3.org/2000/svg" class="icon line-color">
<g id="SVGRepo_bgCarrier" stroke-width="0"/>
<g id="SVGRepo_tracerCarrier" stroke-linecap="round" stroke-linejoin="round"/>
<g id="SVGRepo_iconCarrier">
<path id="secondary" d="M21,16h0c-1.84,0-3.58-1.73-4.18-2.64s-2-3.55-2-3.55A3.2,3.2,0,0,0,12,8h0A3.2,3.2,0,0,0,9.14,9.81s-1.37,2.64-2,3.55S4.84,16,3,16H3" style="fill: none; stroke: #f0f8f9; stroke-linecap: round; stroke-linejoin: round; stroke-width: 2;"/>
<path id="primary" d="M3,8H3c1.84,0,3.58,1.73,4.18,2.64s2,3.55,2,3.55A3.2,3.2,0,0,0,12,16h0a3.2,3.2,0,0,0,2.86-1.81s1.37-2.64,2-3.55S19.16,8,21,8h0" style="fill: none; stroke: #faf9f9; stroke-linecap: round; stroke-linejoin: round; stroke-width: 2;"/>
</g>
</svg>